<svg t="1626319241055" class="icon" viewBox="0 0 1024 1024" version="1.1"
    xmlns="http://www.w3.org/2000/svg" p-id="1171" width="200" height="200">
    <path
        d="M512 73.142857C270.628571 73.142857 73.142857 270.628571 73.142857 512s197.485714 438.857143 438.857143 438.857143 438.857143-197.485714 438.857143-438.857143S753.371429 73.142857 512 73.142857z m0 804.571429C310.857143 877.714286 146.285714 713.142857 146.285714 512S310.857143 146.285714 512 146.285714s365.714286 164.571429 365.714286 365.714286-164.571429 365.714286-365.714286 365.714286z"
        p-id="1172"></path>
    <path
        d="M512 731.428571m-36.571429 0a36.571429 36.571429 0 1 0 73.142858 0 36.571429 36.571429 0 1 0-73.142858 0Z"
        p-id="1173"></path>
    <path
        d="M512 256c-29.257143 0-54.857143 25.6-51.2 54.857143L475.428571 585.142857c0 21.942857 18.285714 36.571429 36.571429 36.571429 21.942857 0 36.571429-14.628571 36.571429-36.571429l14.628571-274.285714c3.657143-29.257143-21.942857-54.857143-51.2-54.857143z"
        p-id="1174"></path>
</svg>