<svg t="1626319270400" class="icon" viewBox="0 0 1024 1024" version="1.1" xmlns="http://www.w3.org/2000/svg" p-id="1554" width="200" height="200"><path d="M512 0a512 512 0 1 0 512 512A512 512 0 0 0 512 0z m15.36 320a92.416 92.416 0 0 1 61.44-32 40.448 40.448 0 0 1 0 8.192 94.208 94.208 0 0 1-21.76 58.368A81.92 81.92 0 0 1 512 384h-5.632a40.96 40.96 0 0 1 0-7.424 90.112 90.112 0 0 1 20.992-56.576z m120.064 332.8c-17.92 25.6-36.864 51.2-65.28 51.2a71.424 71.424 0 0 1-31.744-7.936 79.872 79.872 0 0 0-36.352-8.704 89.856 89.856 0 0 0-38.912 9.216 72.448 72.448 0 0 1-30.464 7.936c-25.6 0-44.288-23.808-64.768-52.992a256 256 0 0 1-44.032-138.496c0-81.152 52.992-124.416 104.96-124.416a107.776 107.776 0 0 1 41.472 10.752 81.408 81.408 0 0 0 25.6 7.424 80.384 80.384 0 0 0 25.6-7.168 125.696 125.696 0 0 1 48.128-12.032A97.792 97.792 0 0 1 665.6 430.336a94.208 94.208 0 0 0-43.776 78.848 91.904 91.904 0 0 0 55.808 84.48 230.4 230.4 0 0 1-30.208 60.16z" p-id="1555"></path></svg>